<svg fill="#ffffff" xmlns="http://www.w3.org/2000/svg"  viewBox="0 0 24 24" width="18px" height="18px"><path d="M 5 3 C 3.9069372 3 3 3.9069372 3 5 L 3 19 C 3 20.093063 3.9069372 21 5 21 L 19 21 C 20.093063 21 21 20.093063 21 19 L 21 5 C 21 3.9069372 20.093063 3 19 3 L 5 3 z M 5 5 L 19 5 L 19 19 L 5 19 L 5 5 z M 14 7 L 14 9 L 17 9 L 17 7 L 14 7 z M 8.4355469 7.0019531 C 7.9755469 6.9829531 7.5543438 7.211125 7.2773438 7.578125 C 6.3113437 8.854125 8.1403125 10.347047 8.5703125 10.748047 C 8.8273125 10.988047 9.1469375 11.273406 9.3359375 11.441406 C 9.4309375 11.526406 9.5710156 11.526406 9.6660156 11.441406 C 9.8560156 11.272406 10.172688 10.987047 10.429688 10.748047 C 10.859687 10.347047 12.688656 8.854125 11.722656 7.578125 C 11.444656 7.211125 11.024453 6.9829531 10.564453 7.0019531 C 9.8794531 7.0299531 9.5 7.5214844 9.5 7.5214844 C 9.5 7.5214844 9.1205469 7.0299531 8.4355469 7.0019531 z M 12 11 L 12 13 L 17 13 L 17 11 L 12 11 z M 7 15 L 7 17 L 17 17 L 17 15 L 7 15 z"/></svg>